<svg xmlns="http://www.w3.org/2000/svg" xmlns:xlink="http://www.w3.org/1999/xlink" xmlns:serif="http://www.serif.com/" viewBox="0 0 64 80" version="1.1" xml:space="preserve" style="" x="0px" y="0px" fill-rule="evenodd" fill="white" clip-rule="evenodd" stroke-linejoin="round" stroke-miterlimit="2"><path d="M19,56c0,2.76 2.241,5 5,5c2.76,-0 5,-2.24 5,-5c0,-2.759 -2.24,-5 -5,-5c0,0 -16,0 -16,0c-0.552,0 -1,0.448 -1,1c0,0.552 0.448,1 1,1l16,0c1.656,0 3,1.344 3,3c0,1.656 -1.344,3 -3,3c-1.656,-0 -3,-1.344 -3,-3c0,-0.552 -0.448,-1 -1,-1c-0.552,0 -1,0.448 -1,1Zm30.562,-8.71c-0.491,-0.161 -1.017,-0.249 -1.562,-0.249c-2.76,0 -5,2.24 -5,5c0,2.76 2.24,5 5,5l8,0c3.863,0 7,-3.137 7,-7c0,-3.863 -3.137,-7 -7,-7c-2.887,0 -5.368,1.752 -6.438,4.249Zm0.055,2.224c0.273,0.176 0.615,0.208 0.916,0.085c0.301,-0.122 0.524,-0.382 0.598,-0.699c0.516,-2.21 2.502,-3.859 4.869,-3.859c2.76,0 5,2.24 5,5c0,2.76 -2.24,5 -5,5l-8,0c-1.656,0 -3,-1.344 -3,-3c0,-1.656 1.344,-3 3,-3c0.595,0 1.15,0.174 1.617,0.473Zm-34.597,-23.514c-0,-9.383 7.617,-17 17,-17c9.382,-0 17,7.617 17,17c-0,9.383 -7.618,17 -17,17l-24.021,0c-0.552,0 -1,0.448 -1,1c-0,0.552 0.448,1 1,1l24.021,0c10.486,0 19,-8.514 19,-19c-0,-10.486 -8.514,-19 -19,-19c-10.487,-0 -19,8.514 -19,19c-0,0.552 0.448,1 1,1c0.552,0 1,-0.448 1,-1Zm11.98,0c0,-2.76 2.24,-5 5,-5c2.76,0 5,2.24 5,5c0,2.76 -2.24,5 -5,5c0,0 -24.001,0 -24.001,0c-0.552,0 -1,0.448 -1,1c-0,0.552 0.448,1 1,1l24.001,0c3.863,0 7,-3.137 7,-7c0,-3.863 -3.137,-7 -7,-7c-3.863,0 -7,3.137 -7,7c0,0.552 0.448,1 1,1c0.552,0 1,-0.448 1,-1Zm30,-21c0,-1.104 0.896,-2 2,-2c1.104,-0 2,0.896 2,2c0,1.104 -0.896,2 -2,2c0,0 -12.001,0 -12.001,0c-0.551,0 -1,0.448 -1,1c0,0.552 0.449,1 1,1l12.001,0c2.208,0 4,-1.792 4,-4c0,-2.208 -1.792,-4 -4,-4c-2.208,-0 -4,1.792 -4,4c0,0.552 0.448,1 1,1c0.552,-0 1,-0.448 1,-1Z"/></svg>